GIL08_xslow2_ik
nRows=3
nColumns=375

# SIMM Motion File Header:
name GIL08_xslow2_ik
datacolumns 375
datarows 3
otherdata 1
range 1.00833000 1.02500000
endheader
time	pelvis_tx	pelvis_ty	pelvis_tz	pelvis_tilt	pelvis_list	pelvis_rotation	hip_flexion_r	hip_adduction_r	hip_rotation_r	knee_angle_r	ankle_angle_r	hip_flexion_l	hip_adduction_l	hip_rotation_l	knee_angle_l	ankle_angle_l	lumbar_extension	lumbar_bending	lumbar_rotation	subtalar_angle_r	mtp_angle_r	subtalar_angle_l	mtp_angle_l	asis_r_px	asis_r_py	asis_r_pz	asis_l_px	asis_l_py	asis_l_pz	midasis_px	midasis_py	midasis_pz	psis_r_px	psis_r_py	psis_r_pz	psis_l_px	psis_l_py	psis_l_pz	hip_r_px	hip_r_py	hip_r_pz	hip_l_px	hip_l_py	hip_l_pz	midhip_px	midhip_py	midhip_pz	epicondLat_r_px	epicondLat_r_py	epicondLat_r_pz	epicondMed_r_px	epicondMed_r_py	epicondMed_r_pz	thighwand_r_px	thighwand_r_py	thighwand_r_pz	upperleg1_r_px	upperleg1_r_py	upperleg1_r_pz	upperleg2_r_px	upperleg2_r_py	upperleg2_r_pz	malleolusLat_r_px	malleolusLat_r_py	malleolusLat_r_pz	malleolusMedv_r_px	malleolusMedv_r_py	malleolusMedv_r_pz	shankwand_r_px	shankwand_r_py	shankwand_r_pz	lowerleg1_r_px	lowerleg1_r_py	lowerleg1_r_pz	knee_r_px	knee_r_py	knee_r_pz	ankle_r_px	ankle_r_py	ankle_r_pz	toe_r_px	toe_r_py	toe_r_pz	epicondLat_l_px	epicondLat_l_py	epicondLat_l_pz	epicondMed_l_px	epicondMed_l_py	epicondMed_l_pz	thighwand_l_px	thighwand_l_py	thighwand_l_pz	upperleg1_l_px	upperleg1_l_py	upperleg1_l_pz	upperleg2_l_px	upperleg2_l_py	upperleg2_l_pz	malleolusLat_l_px	malleolusLat_l_py	malleolusLat_l_pz	malleolusMedv_l_px	malleolusMedv_l_py	malleolusMedv_l_pz	shankwand_l_px	shankwand_l_py	shankwand_l_pz	lowerleg1_l_px	lowerleg1_l_py	lowerleg1_l_pz	knee_l_px	knee_l_py	knee_l_pz	ankle_l_px	ankle_l_py	ankle_l_pz	toe_l_px	toe_l_py	toe_l_pz	subclavicle_r_px	subclavicle_r_py	subclavicle_r_pz	subclavicle_l_px	subclavicle_l_py	subclavicle_l_pz	neck_px	neck_py	neck_pz	sternalnotch_px	sternalnotch_py	sternalnotch_pz	xyphoidprocess_px	xyphoidprocess_py	xyphoidprocess_pz	midhip_tx	midhip_ty	midhip_tz	hip_r_tx	hip_r_ty	hip_r_tz	hip_l_tx	hip_l_ty	hip_l_tz	knee_r_tx	knee_r_ty	knee_r_tz	knee_l_tx	knee_l_ty	knee_l_tz	ankle_r_tx	ankle_r_ty	ankle_r_tz	ankle_l_tx	ankle_l_ty	ankle_l_tz	midasis_tx	midasis_ty	midasis_tz	asis_r_tx	asis_r_ty	asis_r_tz	asis_l_tx	asis_l_ty	asis_l_tz	psis_r_tx	psis_r_ty	psis_r_tz	psis_l_tx	psis_l_ty	psis_l_tz	epicondLat_r_tx	epicondLat_r_ty	epicondLat_r_tz	epicondLat_l_tx	epicondLat_l_ty	epicondLat_l_tz	epicondMed_r_tx	epicondMed_r_ty	epicondMed_r_tz	epicondMed_l_tx	epicondMed_l_ty	epicondMed_l_tz	malleolusLat_r_tx	malleolusLat_r_ty	malleolusLat_r_tz	malleolusLat_l_tx	malleolusLat_l_ty	malleolusLat_l_tz	malleolusMedv_r_tx	malleolusMedv_r_ty	malleolusMedv_r_tz	malleolusMedv_l_tx	malleolusMedv_l_ty	malleolusMedv_l_tz	neck_tx	neck_ty	neck_tz	subclavicle_r_tx	subclavicle_r_ty	subclavicle_r_tz	subclavicle_l_tx	subclavicle_l_ty	subclavicle_l_tz	sternalnotch_tx	sternalnotch_ty	sternalnotch_tz	xyphoidprocess_tx	xyphoidprocess_ty	xyphoidprocess_tz	thighwand_r_tx	thighwand_r_ty	thighwand_r_tz	thighwand_l_tx	thighwand_l_ty	thighwand_l_tz	upperleg1_r_tx	upperleg1_r_ty	upperleg1_r_tz	upperleg1_l_tx	upperleg1_l_ty	upperleg1_l_tz	upperleg2_r_tx	upperleg2_r_ty	upperleg2_r_tz	upperleg2_l_tx	upperleg2_l_ty	upperleg2_l_tz	shankwand_r_tx	shankwand_r_ty	shankwand_r_tz	shankwand_l_tx	shankwand_l_ty	shankwand_l_tz	lowerleg1_r_tx	lowerleg1_r_ty	lowerleg1_r_tz	lowerleg1_l_tx	lowerleg1_l_ty	lowerleg1_l_tz	toe_r_tx	toe_r_ty	toe_r_tz	toe_l_tx	toe_l_ty	toe_l_tz	ground_force_vx	ground_force_vy	ground_force_vz	ground_force_px	ground_force_py	ground_force_pz	ground_force_vx	ground_force_vy	ground_force_vz	ground_force_px	ground_force_py	ground_force_pz	ground_torque_x	ground_torque_y	ground_torque_z	ground_torque_x	ground_torque_y	ground_torque_z	ground_marker_px	ground_marker_py	ground_marker_pz	ground_marker_px	ground_marker_py	ground_marker_pz	ground_marker_px	ground_marker_py	ground_marker_pz	ground_marker_px	ground_marker_py	ground_marker_pz	ground_marker_px	ground_marker_py	ground_marker_pz	ground_marker_px	ground_marker_py	ground_marker_pz	ground_marker_px	ground_marker_py	ground_marker_pz	ground_marker_px	ground_marker_py	ground_marker_pz	ground_marker_px	ground_marker_py	ground_marker_pz	ground_marker_px	ground_marker_py	ground_marker_pz	ground_marker_px	ground_marker_py	ground_marker_pz	ground_marker_px	ground_marker_py	ground_marker_pz	ground_marker_px	ground_marker_py	ground_marker_pz	ground_marker_px	ground_marker_py	ground_marker_pz	ground_marker_px	ground_marker_py	ground_marker_pz	ground_marker_px	ground_marker_py	ground_marker_pz	ground_marker_px	ground_marker_py	ground_marker_pz	ground_marker_px	ground_marker_py	ground_marker_pz	ground_marker_px	ground_marker_py	ground_marker_pz	ground_marker_px	ground_marker_py	ground_marker_pz	ground_marker_px	ground_marker_py	ground_marker_pz	ground_marker_px	ground_marker_py	ground_marker_pz	ground_marker_px	ground_marker_py	ground_marker_pz	ground_marker_px	ground_marker_py	ground_marker_pz	ground_marker_px	ground_marker_py	ground_marker_pz	ground_marker_px	ground_marker_py	ground_marker_pz	ground_marker_px	ground_marker_py	ground_marker_pz	ground_marker_px	ground_marker_py	ground_marker_pz	ground_marker_px	ground_marker_py	ground_marker_pz	ground_marker_px	ground_marker_py	ground_marker_pz	ground_marker_px	ground_marker_py	ground_marker_pz	ground_marker_px	ground_marker_py	ground_marker_pz	ground_marker_px	ground_marker_py	ground_marker_pz	ground_marker_px	ground_marker_py	ground_marker_pz	ground_marker_px	ground_marker_py	ground_marker_pz	ground_marker_px	ground_marker_py	ground_marker_pz	ground_marker_px	ground_marker_py	ground_marker_pz
      1.00833000	     -0.42605562	      0.95718472	      0.26720989	      4.62841275	     -3.43154813	      7.84121226	     10.56914251	      3.17431242	      2.43784620	    -11.11793374	     -4.72474320	    -13.79057542	     -4.79751705	      8.73587245	    -21.06838331	     11.37349287	    -11.11845031	      5.21619108	      0.74389878	      0.00000000	      0.00000000	      0.00000000	      0.00000000	     -0.36666414	      0.98710753	      0.35771128	     -0.40190558	      0.97546062	      0.14801627	     -0.41454617	      0.95802106	      0.26562358	     -0.57741191	      0.98012836	      0.32974815	     -0.59437435	      0.97588474	      0.24332772	     -0.47063358	      0.90311307	      0.34721355	     -0.48886331	      0.89337118	      0.20981173	     -0.47974844	      0.89824212	      0.27851264	     -0.30354617	      0.49537916	      0.37754007	     -0.35474528	      0.50471305	      0.26877464	     -0.28482467	      0.62150152	      0.44676404	     -0.30485313	      0.67940644	      0.37553341	     -0.28948762	      0.59955039	      0.35216356	     -0.34349124	      0.06760367	      0.38869669	     -0.35696803	      0.06506408	      0.32154155	     -0.31096784	      0.14280022	      0.44669781	     -0.33846869	      0.19923707	      0.38762602	     -0.36884945	      0.50187608	      0.33910316	     -0.34179024	      0.08599636	      0.34554914	     -0.23150398	      0.04414546	      0.32385658	     -0.52609705	      0.45944736	      0.14152753	     -0.54449102	      0.46991175	      0.24765784	     -0.36488480	      0.57452792	      0.20140679	     -0.42840245	      0.64460346	      0.16101251	     -0.45238626	      0.56119701	      0.16114382	     -0.78929388	      0.11156311	      0.17021069	     -0.77770783	      0.11389814	      0.23904769	     -0.63733089	      0.14573361	      0.21305824	     -0.66782103	      0.22389677	      0.20135585	     -0.55929220	      0.48431111	      0.21292663	     -0.77216158	      0.12596551	      0.21074821	     -0.67059221	      0.04333261	      0.19532930	     -0.43082776	      1.36162101	      0.35965744	     -0.44444860	      1.36850427	      0.20475926	     -0.53458007	      1.44107622	      0.28350171	     -0.45019709	      1.36696058	      0.27941715	     -0.42072445	      1.16497881	      0.26116191	     -0.47695700	      0.90208700	      0.28548500	     -0.47958300	      0.88467200	      0.33530500	     -0.49400100	      0.87926000	      0.22985400	     -0.37297200	      0.48936500	      0.32714100	     -0.56308200	      0.46829800	      0.21914400	     -0.34512300	      0.07162800	      0.32075300	     -0.77937500	      0.10520000	      0.22803900	     -0.40938700	      0.97862200	      0.26703600	     -0.39526400	      0.98392300	      0.37032800	     -0.42351000	      0.97332100	      0.16374400	     -0.60391500	      1.00608600	      0.32980700	     -0.61187400	      1.00350300	      0.24408700	     -0.36187000	      0.49115200	      0.38556900	     -0.56112000	      0.46951800	      0.15968900	     -0.39221700	      0.49955200	      0.26681600	     -0.56436400	      0.47173500	      0.27132300	     -0.34856800	      0.07082000	      0.35858800	     -0.78258600	      0.10614900	      0.18868200	     -0.34714500	      0.07754200	      0.28887800	     -0.77046100	      0.11692800	      0.25671000	     -0.52844000	      1.46198100	      0.28417600	     -0.43002300	      1.38307500	      0.35836000	     -0.44184800	      1.38731400	      0.20298600	     -0.44841600	      1.38737500	      0.27770700	     -0.42420000	      1.18432600	      0.26355700	     -0.35213800	      0.59277100	      0.46803000	     -0.39290000	      0.57199900	      0.20226800	     -0.35000900	      0.65830800	      0.39853600	     -0.45821700	      0.64369100	      0.16684100	     -0.33788900	      0.57957900	      0.37118100	     -0.48229500	      0.55919900	      0.17244900	     -0.33960200	      0.14715400	      0.42694800	     -0.63674800	      0.15620900	      0.22912600	     -0.36237100	      0.20339400	      0.36666500	     -0.66889100	      0.23170200	      0.21653600	     -0.22252200	      0.04490900	      0.30703900	     -0.67174000	      0.04286800	      0.23656300	    -30.92158225	    317.87351460	     -5.98675777	     -0.33046854	      0.00000000	      0.32682376	     36.63206991	    280.04097307	     -5.57611338	     -0.65764526	      0.00000000	      0.23428969	      0.00000000	     -0.26081531	      0.00000000	      0.00000000	     -0.72800171	      0.00000000	     -0.47695678	      0.90208662	      0.28548509	     -0.47958273	      0.88467163	      0.33530545	     -0.49400112	      0.87926018	      0.22985412	     -0.37297153	      0.48936459	      0.32714102	     -0.56308198	      0.46829849	      0.21914366	     -0.34512255	      0.07162801	      0.32075348	     -0.77937537	      0.10520022	      0.22803943	     -0.40938723	      0.97862196	      0.26703617	     -0.39526412	      0.98392254	      0.37032795	     -0.42351034	      0.97332138	      0.16374438	     -0.60391510	      1.00608635	      0.32980675	     -0.61187387	      1.00350261	      0.24408695	     -0.36186957	      0.49115199	      0.38556877	     -0.56111974	      0.46951815	      0.15968853	     -0.39221692	      0.49955195	      0.26681617	     -0.56436354	      0.47173494	      0.27132300	     -0.34856796	      0.07081980	      0.35858831	     -0.78258634	      0.10614871	      0.18868157	     -0.34714460	      0.07754202	      0.28887832	     -0.77046055	      0.11692754	      0.25671044	     -0.52843958	      1.46198058	      0.28417563	     -0.43002275	      1.38307524	      0.35835958	     -0.44184831	      1.38731444	      0.20298605	     -0.44841582	      1.38737476	      0.27770725	     -0.42419991	      1.18432605	      0.26355714	     -0.35213843	      0.59277093	      0.46802980	     -0.39290008	      0.57199913	      0.20226784	     -0.35000888	      0.65830767	      0.39853626	     -0.45821732	      0.64369071	      0.16684115	     -0.33788922	      0.57957894	      0.37118080	     -0.48229533	      0.55919939	      0.17244862	     -0.33960173	      0.14715432	      0.42694816	     -0.63674843	      0.15620880	      0.22912607	     -0.36237103	      0.20339380	      0.36666542	     -0.66889131	      0.23170166	      0.21653605	     -0.22252201	      0.04490922	      0.30703890	     -0.67174041	      0.04286791	      0.23656318
      1.01667000	     -0.42036571	      0.95793433	      0.26741946	      4.68711359	     -3.43715815	      8.01981589	     10.10435993	      3.19417057	      1.80389963	    -11.09002537	     -4.40264404	    -13.42821739	     -5.00456153	      8.07164616	    -22.26188921	     10.46005834	    -11.12483982	      5.37030379	      0.67764674	      0.00000000	      0.00000000	      0.00000000	      0.00000000	     -0.36071967	      0.98793867	      0.35772624	     -0.39659981	      0.97618854	      0.14814533	     -0.40886193	      0.95877975	      0.26579727	     -0.57154701	      0.98077323	      0.33041764	     -0.58877313	      0.97648502	      0.24405158	     -0.46465064	      0.90385350	      0.34757950	     -0.48329713	      0.89404806	      0.21023815	     -0.47397388	      0.89895078	      0.27890882	     -0.30085915	      0.49483404	      0.37856771	     -0.35110351	      0.50472761	      0.26940724	     -0.28175987	      0.62069989	      0.44815441	     -0.30077775	      0.67886899	      0.37686206	     -0.28581901	      0.59893865	      0.35348225	     -0.34387886	      0.06735849	      0.38863946	     -0.35682884	      0.06502889	      0.32137315	     -0.31130235	      0.14222580	      0.44703536	     -0.33792960	      0.19895521	      0.38784368	     -0.36580442	      0.50188236	      0.33961542	     -0.34170027	      0.08581315	      0.34553987	     -0.23128446	      0.04384967	      0.32474235	     -0.51866860	      0.46029626	      0.13990176	     -0.53560053	      0.47001358	      0.24634596	     -0.35736770	      0.57608906	      0.19814693	     -0.42191785	      0.64597833	      0.15908879	     -0.44535071	      0.56241532	      0.15906567	     -0.78666153	      0.11516637	      0.17011109	     -0.77407234	      0.11688514	      0.23878991	     -0.63363619	      0.14689580	      0.21101071	     -0.66316944	      0.22555873	      0.20024016	     -0.55078093	      0.48432572	      0.21192285	     -0.76875456	      0.12905801	      0.21049176	     -0.66990217	      0.04349379	      0.19348468	     -0.42516151	      1.36214875	      0.36071851	     -0.43903480	      1.36935845	      0.20585759	     -0.52906718	      1.44172645	      0.28490052	     -0.44466228	      1.36765262	      0.28052117	     -0.41514112	      1.16572192	      0.26178574	     -0.47208300	      0.90209800	      0.28537500	     -0.47312000	      0.88565900	      0.33606100	     -0.48788700	      0.88027200	      0.23065700	     -0.36968600	      0.48966200	      0.32770200	     -0.55445800	      0.46868200	      0.21829000	     -0.34485500	      0.07154600	      0.32097900	     -0.77599400	      0.10823900	      0.22758000	     -0.40320100	      0.97966600	      0.26758700	     -0.38871500	      0.98495100	      0.37098800	     -0.41768700	      0.97438100	      0.16418600	     -0.59784100	      1.00712500	      0.33064200	     -0.60662400	      1.00444100	      0.24511900	     -0.35901800	      0.49121300	      0.38621700	     -0.55336300	      0.47029200	      0.15882200	     -0.38895400	      0.50009700	      0.26750000	     -0.56189900	      0.47449400	      0.27237100	     -0.34839200	      0.07072800	      0.35880500	     -0.77995800	      0.10966300	      0.18830500	     -0.34699100	      0.07752900	      0.28914000	     -0.76680300	      0.12012100	      0.25608400	     -0.52297900	      1.46277700	      0.28563300	     -0.42424100	      1.38393200	      0.35937000	     -0.43646700	      1.38845400	      0.20411000	     -0.44284600	      1.38835500	      0.27881100	     -0.41827300	      1.18538100	      0.26419600	     -0.34914700	      0.59266600	      0.46896300	     -0.38450100	      0.57298500	      0.19949500	     -0.34584600	      0.65824900	      0.39966300	     -0.45278400	      0.64419000	      0.16528800	     -0.33442400	      0.57940600	      0.37230100	     -0.48015500	      0.55856300	      0.17148000	     -0.33902200	      0.14695700	      0.42730500	     -0.63293300	      0.15757200	      0.22639600	     -0.36149000	      0.20336300	      0.36709500	     -0.66429200	      0.23358100	      0.21527300	     -0.22226200	      0.04462100	      0.30704700	     -0.67072600	      0.04294400	      0.23635400	    -31.07480831	    337.60168766	     -7.35783985	     -0.32937390	      0.00000000	      0.32693152	     33.47059008	    251.81865887	     -6.40854638	     -0.65721014	      0.00000000	      0.23398227	      0.00000000	     -0.29110760	      0.00000000	      0.00000000	     -0.66166187	      0.00000000	     -0.47208267	      0.90209794	      0.28537548	     -0.47312006	      0.88565928	      0.33606136	     -0.48788670	      0.88027185	      0.23065703	     -0.36968562	      0.48966169	      0.32770199	     -0.55445850	      0.46868175	      0.21828966	     -0.34485468	      0.07154609	      0.32097864	     -0.77599394	      0.10823935	      0.22758009	     -0.40320051	      0.97966605	      0.26758689	     -0.38871452	      0.98495114	      0.37098813	     -0.41768652	      0.97438097	      0.16418563	     -0.59784079	      1.00712490	      0.33064157	     -0.60662377	      1.00444055	      0.24511869	     -0.35901782	      0.49121287	      0.38621733	     -0.55336344	      0.47029153	      0.15882152	     -0.38895419	      0.50009710	      0.26750025	     -0.56189930	      0.47449371	      0.27237126	     -0.34839171	      0.07072778	      0.35880482	     -0.77995765	      0.10966318	      0.18830526	     -0.34699130	      0.07752945	      0.28914049	     -0.76680273	      0.12012059	      0.25608405	     -0.52297896	      1.46277666	      0.28563252	     -0.42424053	      1.38393223	      0.35937035	     -0.43646729	      1.38845360	      0.20410958	     -0.44284597	      1.38835454	      0.27881074	     -0.41827303	      1.18538141	      0.26419607	     -0.34914687	      0.59266561	      0.46896309	     -0.38450056	      0.57298452	      0.19949506	     -0.34584591	      0.65824890	      0.39966252	     -0.45278409	      0.64418983	      0.16528805	     -0.33442381	      0.57940596	      0.37230101	     -0.48015529	      0.55856276	      0.17148034	     -0.33902165	      0.14695688	      0.42730469	     -0.63293266	      0.15757154	      0.22639643	     -0.36149034	      0.20336315	      0.36709478	     -0.66429198	      0.23358110	      0.21527255	     -0.22226216	      0.04462054	      0.30704683	     -0.67072606	      0.04294428	      0.23635401
      1.02500000	     -0.41527656	      0.95830203	      0.26763035	      4.74049123	     -3.39090707	      8.16582890	      9.66885593	      3.15897895	      1.26473633	    -11.04745416	     -4.10070053	    -13.01979633	     -5.16682430	      7.33413260	    -23.46550315	      9.40507915	    -11.21086317	      5.46720971	      0.68358238	      0.00000000	      0.00000000	      0.00000000	      0.00000000	     -0.35541915	      0.98829923	      0.35779954	     -0.39183529	      0.97664568	      0.14830571	     -0.40377769	      0.95915739	      0.26597874	     -0.56631118	      0.98098545	      0.33103521	     -0.58375860	      0.97673514	      0.24471171	     -0.45931062	      0.90413901	      0.34787305	     -0.47830675	      0.89440065	      0.21057484	     -0.46880868	      0.89926983	      0.27922395	     -0.29854307	      0.49397151	      0.37951569	     -0.34792997	      0.50434300	      0.27000882	     -0.27908744	      0.61961789	      0.44939965	     -0.29719299	      0.67800356	      0.37804683	     -0.28261201	      0.59800174	      0.35467286	     -0.34424200	      0.06679721	      0.38867462	     -0.35672152	      0.06463862	      0.32131375	     -0.31163086	      0.14138437	      0.44740870	     -0.33748518	      0.19835612	      0.38810723	     -0.36316534	      0.50151342	      0.34010713	     -0.34164086	      0.08529710	      0.34561788	     -0.23109982	      0.04326959	      0.32563066	     -0.51154665	      0.46084800	      0.13800641	     -0.52690941	      0.46976675	      0.24475811	     -0.35022937	      0.57747717	      0.19451146	     -0.41588844	      0.64712546	      0.15689803	     -0.43869999	      0.56339095	      0.15669807	     -0.78400888	      0.11833139	      0.17008452	     -0.77035201	      0.11942075	      0.23857193	     -0.62996028	      0.14771690	      0.20883769	     -0.65858116	      0.22684180	      0.19903109	     -0.54251690	      0.48398330	      0.21066533	     -0.76530107	      0.13170961	      0.21027502	     -0.66944255	      0.04312851	      0.19165228	     -0.41958011	      1.36218829	      0.36170457	     -0.43381733	      1.36973140	      0.20689256	     -0.52359373	      1.44201782	      0.28630046	     -0.43926768	      1.36787608	      0.28156571	     -0.40997707	      1.16595771	      0.26234189	     -0.46883400	      0.90008400	      0.28554800	     -0.46690200	      0.88653800	      0.33660200	     -0.48195900	      0.88124400	      0.23123400	     -0.36652500	      0.48988400	      0.32826500	     -0.54576500	      0.46910700	      0.21723500	     -0.34456400	      0.07148700	      0.32117900	     -0.77228200	      0.11135500	      0.22700600	     -0.39719800	      0.98062700	      0.26802200	     -0.38242300	      0.98582200	      0.37141700	     -0.41197200	      0.97543300	      0.16462700	     -0.59180300	      1.00806200	      0.33147600	     -0.60132600	      1.00536500	      0.24616900	     -0.35625000	      0.49125200	      0.38685500	     -0.54559800	      0.47110100	      0.15776900	     -0.38494400	      0.50070200	      0.26796900	     -0.54407800	      0.47015600	      0.26896900	     -0.34822500	      0.07065500	      0.35899300	     -0.77706200	      0.11331200	      0.18784500	     -0.34685200	      0.07751900	      0.28937300	     -0.76280000	      0.12344500	      0.25537500	     -0.51746700	      1.46362500	      0.28709100	     -0.41862100	      1.38474900	      0.36035100	     -0.43110400	      1.38961100	      0.20523400	     -0.43736100	      1.38933900	      0.27988900	     -0.41265600	      1.18641900	      0.26477000	     -0.34617300	      0.59254700	      0.46986100	     -0.37611900	      0.57397700	      0.19633800	     -0.34140500	      0.65824400	      0.40071100	     -0.44417100	      0.64511700	      0.16386800	     -0.33060700	      0.57930300	      0.37340600	     -0.46651900	      0.56070200	      0.16891300	     -0.33853700	      0.14674900	      0.42762600	     -0.62887200	      0.15901200	      0.22333500	     -0.36062400	      0.20332600	      0.36749600	     -0.65913000	      0.23566100	      0.21392500	     -0.22202300	      0.04437500	      0.30705800	     -0.66964700	      0.04301900	      0.23610900	    -30.95598369	    357.67187167	     -8.31525086	     -0.32848425	      0.00000000	      0.32703220	     30.13506903	    223.31954962	     -7.09489570	     -0.65684814	      0.00000000	      0.23352718	      0.00000000	     -0.33329016	      0.00000000	      0.00000000	     -0.59017236	      0.00000000	     -0.46883398	      0.90008360	      0.28554815	     -0.46690214	      0.88653785	      0.33660209	     -0.48195869	      0.88124418	      0.23123400	     -0.36652458	      0.48988354	      0.32826519	     -0.54576468	      0.46910658	      0.21723534	     -0.34456432	      0.07148748	      0.32117915	     -0.77228218	      0.11135501	      0.22700571	     -0.39719769	      0.98062730	      0.26802194	     -0.38242307	      0.98582178	      0.37141705	     -0.41197231	      0.97543281	      0.16462681	     -0.59180272	      1.00806189	      0.33147588	     -0.60132587	      1.00536537	      0.24616906	     -0.35624960	      0.49125230	      0.38685530	     -0.54559761	      0.47110057	      0.15776899	     -0.38494396	      0.50070232	      0.26796910	     -0.54407763	      0.47015566	      0.26896867	     -0.34822458	      0.07065494	      0.35899329	     -0.77706242	      0.11331221	      0.18784490	     -0.34685165	      0.07751861	      0.28937328	     -0.76279980	      0.12344545	      0.25537485	     -0.51746666	      1.46362531	      0.28709066	     -0.41862091	      1.38474917	      0.36035064	     -0.43110377	      1.38961148	      0.20523447	     -0.43736100	      1.38933873	      0.27988929	     -0.41265598	      1.18641877	      0.26477030	     -0.34617305	      0.59254730	      0.46986148	     -0.37611887	      0.57397676	      0.19633788	     -0.34140512	      0.65824360	      0.40071148	     -0.44417116	      0.64511722	      0.16386838	     -0.33060735	      0.57930326	      0.37340650	     -0.46651945	      0.56070203	      0.16891275	     -0.33853734	      0.14674914	      0.42762631	     -0.62887162	      0.15901236	      0.22333507	     -0.36062372	      0.20332576	      0.36749575	     -0.65912968	      0.23566090	      0.21392529	     -0.22202341	      0.04437524	      0.30705795	     -0.66964674	      0.04301942	      0.23610899
